# xmcd
#
# Track frame offsets: 
#        150
#        16407
#        26577
#        37548
#        53898
#        67595
#        82509
#        94865
#        104537
#
# Disc length: 1960 seconds
#
# Revision: 3
# Processed by: cddbd v1.5.2PL0 Copyright (c) Steve Scherf et al.
# Submitted via: ExactAudioCopy v0.99pb5
#
DISCID=5707a609
DTITLE=Screamin' Jay Hawkins - I Put A Spell On You and Other Favorites 
DTITLE=(Remastered)
DYEAR=1900
DGENRE=Blues
TTITLE0=I've Got You Under My Skin
TTITLE1=I Put A Spell On You
TTITLE2=Time After Time
TTITLE3=Ebb Tide
TTITLE4=Move Me
TTITLE5=Africa Gone Funky
TTITLE6=Ashes
TTITLE7=I Need You
TTITLE8=Sweet Ginny
EXTD=
EXTT0=
EXTT1=
EXTT2=
EXTT3=
EXTT4=
EXTT5=
EXTT6=
EXTT7=
EXTT8=
PLAYORDER=
